<svg width="732.0" height="392.0" viewBox="0 0 732.0 392.0" class="keymap" xmlns="http://www.w3.org/2000/svg" xmlns:xlink="http://www.w3.org/1999/xlink">
<defs>/* start glyphs */
<svg id="mdi:apple-keyboard-command">
<svg xmlns="http://www.w3.org/2000/svg" id="mdi-apple-keyboard-command" viewBox="0 0 24 24"><path d="M6,2A4,4 0 0,1 10,6V8H14V6A4,4 0 0,1 18,2A4,4 0 0,1 22,6A4,4 0 0,1 18,10H16V14H18A4,4 0 0,1 22,18A4,4 0 0,1 18,22A4,4 0 0,1 14,18V16H10V18A4,4 0 0,1 6,22A4,4 0 0,1 2,18A4,4 0 0,1 6,14H8V10H6A4,4 0 0,1 2,6A4,4 0 0,1 6,2M16,18A2,2 0 0,0 18,20A2,2 0 0,0 20,18A2,2 0 0,0 18,16H16V18M14,10H10V14H14V10M6,16A2,2 0 0,0 4,18A2,2 0 0,0 6,20A2,2 0 0,0 8,18V16H6M8,6A2,2 0 0,0 6,4A2,2 0 0,0 4,6A2,2 0 0,0 6,8H8V6M18,8A2,2 0 0,0 20,6A2,2 0 0,0 18,4A2,2 0 0,0 16,6V8H18Z" /></svg>
</svg>
<svg id="mdi:keyboard-space">
<svg xmlns="http://www.w3.org/2000/svg" id="mdi-keyboard-space" viewBox="0 0 24 24"><path d="M3 15H5V19H19V15H21V19C21 20.1 20.1 21 19 21H5C3.9 21 3 20.1 3 19V15Z" /></svg>
</svg>
<svg id="mdi:backspace">
<svg xmlns="http://www.w3.org/2000/svg" id="mdi-backspace" viewBox="0 0 24 24"><path d="M22,3H7C6.31,3 5.77,3.35 5.41,3.88L0,12L5.41,20.11C5.77,20.64 6.31,21 7,21H22A2,2 0 0,0 24,19V5A2,2 0 0,0 22,3M19,15.59L17.59,17L14,13.41L10.41,17L9,15.59L12.59,12L9,8.41L10.41,7L14,10.59L17.59,7L19,8.41L15.41,12" /></svg>
</svg>
<svg id="mdi:apple-keyboard-option">
<svg xmlns="http://www.w3.org/2000/svg" id="mdi-apple-keyboard-option" viewBox="0 0 24 24"><path d="M3,4H9.11L16.15,18H21V20H14.88L7.84,6H3V4M14,4H21V6H14V4Z" /></svg>
</svg>
<svg id="mdi:apple-keyboard-shift">
<svg xmlns="http://www.w3.org/2000/svg" id="mdi-apple-keyboard-shift" viewBox="0 0 24 24"><path d="M15,18V12H17.17L12,6.83L6.83,12H9V18H15M12,4L22,14H17V20H7V14H2L12,4Z" /></svg>
</svg>
<svg id="mdi:apple-keyboard-control">
<svg xmlns="http://www.w3.org/2000/svg" id="mdi-apple-keyboard-control" viewBox="0 0 24 24"><path d="M19.78,11.78L18.36,13.19L12,6.83L5.64,13.19L4.22,11.78L12,4L19.78,11.78Z" /></svg>
</svg>
<svg id="mdi:keyboard-tab">
<svg xmlns="http://www.w3.org/2000/svg" id="mdi-keyboard-tab" viewBox="0 0 24 24"><path d="M20,18H22V6H20M11.59,7.41L15.17,11H1V13H15.17L11.59,16.58L13,18L19,12L13,6L11.59,7.41Z" /></svg>
</svg>
</defs>/* end glyphs */
<style>/* inherit to force styles through use tags*/
svg path {
    fill: inherit;
}
/* font and background color specifications */
svg.keymap {
    font-family: SFMono-Regular,Consolas,Liberation Mono,Menlo,monospace;
    font-size: 14px;
    font-kerning: normal;
    text-rendering: optimizeLegibility;
    fill: #24292e;
}

/* default key styling */
rect.key {
    fill: #f6f8fa;
    stroke: #c9cccf;
    stroke-width: 1;
}

/* color accent for combo boxes */
rect.combo {
    fill: #cdf;
}

/* color accent for held keys */
rect.held, rect.combo.held {
    fill: #fdd;
}

/* color accent for ghost (optional) keys */
rect.ghost, rect.combo.ghost {
    fill: #ddd;
}

text {
    text-anchor: middle;
    dominant-baseline: middle;
}

/* styling for layer labels */
text.label {
    font-weight: bold;
    text-anchor: start;
    stroke: white;
    stroke-width: 2;
    paint-order: stroke;
}

/* styling for combo tap, and key hold/shifted label text */
text.combo, text.hold, text.shifted {
    font-size: 11px;
}

text.hold {
    text-anchor: middle;
    dominant-baseline: auto;
}

text.shifted {
    text-anchor: middle;
    dominant-baseline: hanging;
}

/* styling for hold/shifted label text in combo box */
text.combo.hold, text.combo.shifted {
    font-size: 8px;
}

/* lighter symbol for transparent keys */
text.trans {
    fill: #7b7e81;
}

/* styling for combo dendrons */
path.combo {
    stroke-width: 1;
    stroke: gray;
    fill: none;
}

/* Start Tabler Icons Cleanup */
/* cannot use height/width with glyphs */
.icon-tabler > path {
    fill: inherit;
    stroke: inherit;
}
/* hide tabler's default box */
.icon-tabler > path[stroke="none"][fill="none"] {
    visibility: collapse;
}
/* End Tabler Icons Cleanup */
</style>
<g class="layer-7">
<text x="30.0" y="28.0" class="label">7:</text>
<rect rx="6.0" ry="6.0" x="32.0" y="58.0" width="52.0" height="52.0" class="key"/>
<use href="#mdi:keyboard-tab" xlink:href="#mdi:keyboard-tab" x="51.0" y="77.0" height="14" width="14.0" class="tap glyph mdi:keyboard-tab"/>
<rect rx="6.0" ry="6.0" x="88.0" y="58.0" width="52.0" height="52.0" class="key"/>
<text x="114.0" y="84.0" class="tap">Q</text>
<rect rx="6.0" ry="6.0" x="144.0" y="58.0" width="52.0" height="52.0" class="key"/>
<text x="170.0" y="84.0" class="tap">W</text>
<rect rx="6.0" ry="6.0" x="200.0" y="58.0" width="52.0" height="52.0" class="key"/>
<text x="226.0" y="84.0" class="tap">F</text>
<rect rx="6.0" ry="6.0" x="256.0" y="58.0" width="52.0" height="52.0" class="key"/>
<text x="282.0" y="84.0" class="tap">P</text>
<rect rx="6.0" ry="6.0" x="312.0" y="58.0" width="52.0" height="52.0" class="key"/>
<text x="338.0" y="84.0" class="tap">G</text>
<rect rx="6.0" ry="6.0" x="368.0" y="58.0" width="52.0" height="52.0" class="key"/>
<text x="394.0" y="84.0" class="tap">J</text>
<rect rx="6.0" ry="6.0" x="424.0" y="58.0" width="52.0" height="52.0" class="key"/>
<text x="450.0" y="84.0" class="tap">L</text>
<rect rx="6.0" ry="6.0" x="480.0" y="58.0" width="52.0" height="52.0" class="key"/>
<text x="506.0" y="84.0" class="tap">U</text>
<rect rx="6.0" ry="6.0" x="536.0" y="58.0" width="52.0" height="52.0" class="key"/>
<text x="562.0" y="84.0" class="tap">Y</text>
<rect rx="6.0" ry="6.0" x="592.0" y="58.0" width="52.0" height="52.0" class="key"/>
<text x="618.0" y="84.0" class="tap">:</text>
<rect rx="6.0" ry="6.0" x="648.0" y="58.0" width="52.0" height="52.0" class="backspace key"/>
<use href="#mdi:backspace" xlink:href="#mdi:backspace" x="667.0" y="77.0" height="14" width="14.0" class="backspace tap glyph mdi:backspace"/>
<rect rx="6.0" ry="6.0" x="32.0" y="114.0" width="52.0" height="52.0" class="key"/>
<use href="#mdi:apple-keyboard-control" xlink:href="#mdi:apple-keyboard-control" x="51.0" y="133.0" height="14" width="14.0" class="tap glyph mdi:apple-keyboard-control"/>
<rect rx="6.0" ry="6.0" x="88.0" y="114.0" width="52.0" height="52.0" class="key"/>
<text x="114.0" y="140.0" class="tap">A</text>
<rect rx="6.0" ry="6.0" x="144.0" y="114.0" width="52.0" height="52.0" class="key"/>
<text x="170.0" y="140.0" class="tap">R</text>
<rect rx="6.0" ry="6.0" x="200.0" y="114.0" width="52.0" height="52.0" class="key"/>
<text x="226.0" y="140.0" class="tap">S</text>
<rect rx="6.0" ry="6.0" x="256.0" y="114.0" width="52.0" height="52.0" class="key"/>
<text x="282.0" y="140.0" class="tap">T</text>
<rect rx="6.0" ry="6.0" x="312.0" y="114.0" width="52.0" height="52.0" class="key"/>
<text x="338.0" y="140.0" class="tap">D</text>
<rect rx="6.0" ry="6.0" x="368.0" y="114.0" width="52.0" height="52.0" class="key"/>
<text x="394.0" y="140.0" class="tap">H</text>
<rect rx="6.0" ry="6.0" x="424.0" y="114.0" width="52.0" height="52.0" class="key"/>
<text x="450.0" y="140.0" class="tap">N</text>
<rect rx="6.0" ry="6.0" x="480.0" y="114.0" width="52.0" height="52.0" class="key"/>
<text x="506.0" y="140.0" class="tap">E</text>
<rect rx="6.0" ry="6.0" x="536.0" y="114.0" width="52.0" height="52.0" class="key"/>
<text x="562.0" y="140.0" class="tap">I</text>
<rect rx="6.0" ry="6.0" x="592.0" y="114.0" width="52.0" height="52.0" class="key"/>
<text x="618.0" y="140.0" class="tap">O</text>
<rect rx="6.0" ry="6.0" x="648.0" y="114.0" width="52.0" height="52.0" class="key"/>
<text x="674.0" y="140.0" class="tap">RET</text>
<rect rx="6.0" ry="6.0" x="32.0" y="170.0" width="52.0" height="52.0" class="key"/>
<use href="#mdi:apple-keyboard-shift" xlink:href="#mdi:apple-keyboard-shift" x="51.0" y="189.0" height="14" width="14.0" class="tap glyph mdi:apple-keyboard-shift"/>
<rect rx="6.0" ry="6.0" x="88.0" y="170.0" width="52.0" height="52.0" class="key"/>
<text x="114.0" y="196.0" class="tap">Z</text>
<rect rx="6.0" ry="6.0" x="144.0" y="170.0" width="52.0" height="52.0" class="key"/>
<text x="170.0" y="196.0" class="tap">X</text>
<rect rx="6.0" ry="6.0" x="200.0" y="170.0" width="52.0" height="52.0" class="key"/>
<text x="226.0" y="196.0" class="tap">C</text>
<rect rx="6.0" ry="6.0" x="256.0" y="170.0" width="52.0" height="52.0" class="key"/>
<text x="282.0" y="196.0" class="tap">V</text>
<rect rx="6.0" ry="6.0" x="312.0" y="170.0" width="52.0" height="52.0" class="key"/>
<text x="338.0" y="196.0" class="tap">B</text>
<rect rx="6.0" ry="6.0" x="368.0" y="170.0" width="52.0" height="52.0" class="key"/>
<text x="394.0" y="196.0" class="tap">K</text>
<rect rx="6.0" ry="6.0" x="424.0" y="170.0" width="52.0" height="52.0" class="key"/>
<text x="450.0" y="196.0" class="tap">M</text>
<rect rx="6.0" ry="6.0" x="480.0" y="170.0" width="52.0" height="52.0" class="key"/>
<text x="506.0" y="196.0" class="tap">,</text>
<rect rx="6.0" ry="6.0" x="536.0" y="170.0" width="52.0" height="52.0" class="key"/>
<text x="562.0" y="196.0" class="tap">.</text>
<rect rx="6.0" ry="6.0" x="592.0" y="170.0" width="52.0" height="52.0" class="key"/>
<text x="618.0" y="196.0" class="tap">/</text>
<rect rx="6.0" ry="6.0" x="648.0" y="170.0" width="52.0" height="52.0" class="key"/>
<rect rx="6.0" ry="6.0" x="256.0" y="226.0" width="52.0" height="52.0" class="key"/>
<rect rx="6.0" ry="6.0" x="312.0" y="226.0" width="52.0" height="52.0" class="key"/>
<rect rx="6.0" ry="6.0" x="368.0" y="226.0" width="52.0" height="52.0" class="key"/>
<rect rx="6.0" ry="6.0" x="424.0" y="226.0" width="52.0" height="52.0" class="key"/>
<rect rx="6.0" ry="6.0" x="144.0" y="282.0" width="52.0" height="52.0" class="key"/>
<use href="#mdi:apple-keyboard-option" xlink:href="#mdi:apple-keyboard-option" x="163.0" y="301.0" height="14" width="14.0" class="tap glyph mdi:apple-keyboard-option"/>
<rect rx="6.0" ry="6.0" x="200.0" y="282.0" width="52.0" height="52.0" class="key"/>
<use href="#mdi:apple-keyboard-command" xlink:href="#mdi:apple-keyboard-command" x="219.0" y="301.0" height="14" width="14.0" class="tap glyph mdi:apple-keyboard-command"/>
<rect rx="6.0" ry="6.0" x="256.0" y="282.0" width="52.0" height="52.0" class="key"/>
<text x="282.0" y="308.0" class="tap">1_layer</text>
<rect rx="6.0" ry="6.0" x="312.0" y="282.0" width="52.0" height="52.0" class="key"/>
<text x="338.0" y="308.0" class="tap">3_layer</text>
<rect rx="6.0" ry="6.0" x="368.0" y="282.0" width="52.0" height="52.0" class="key"/>
<use href="#mdi:apple-keyboard-shift" xlink:href="#mdi:apple-keyboard-shift" x="387.0" y="301.0" height="14" width="14.0" class="tap glyph mdi:apple-keyboard-shift"/>
<rect rx="6.0" ry="6.0" x="424.0" y="282.0" width="52.0" height="52.0" class="key"/>
<use href="#mdi:keyboard-space" xlink:href="#mdi:keyboard-space" x="443.0" y="301.0" height="14" width="14.0" class="tap glyph mdi:keyboard-space"/>
<rect rx="6.0" ry="6.0" x="480.0" y="282.0" width="52.0" height="52.0" class="key"/>
<text x="506.0" y="308.0" class="tap">2_layer</text>
<rect rx="6.0" ry="6.0" x="536.0" y="282.0" width="52.0" height="52.0" class="key"/>
<text x="562.0" y="308.0" class="tap">4_layer</text>
</g>
</svg>
