<svg width="732.0" height="392.0" viewBox="0 0 732.0 392.0" class="keymap" xmlns="http://www.w3.org/2000/svg" xmlns:xlink="http://www.w3.org/1999/xlink">
<defs>/* start glyphs */
<svg id="mdi:arrow-left-bold">
<svg xmlns="http://www.w3.org/2000/svg" id="mdi-arrow-left-bold" viewBox="0 0 24 24"><path d="M20,9V15H12V19.84L4.16,12L12,4.16V9H20Z" /></svg>
</svg>
<svg id="mdi:apple-keyboard-command">
<svg xmlns="http://www.w3.org/2000/svg" id="mdi-apple-keyboard-command" viewBox="0 0 24 24"><path d="M6,2A4,4 0 0,1 10,6V8H14V6A4,4 0 0,1 18,2A4,4 0 0,1 22,6A4,4 0 0,1 18,10H16V14H18A4,4 0 0,1 22,18A4,4 0 0,1 18,22A4,4 0 0,1 14,18V16H10V18A4,4 0 0,1 6,22A4,4 0 0,1 2,18A4,4 0 0,1 6,14H8V10H6A4,4 0 0,1 2,6A4,4 0 0,1 6,2M16,18A2,2 0 0,0 18,20A2,2 0 0,0 20,18A2,2 0 0,0 18,16H16V18M14,10H10V14H14V10M6,16A2,2 0 0,0 4,18A2,2 0 0,0 6,20A2,2 0 0,0 8,18V16H6M8,6A2,2 0 0,0 6,4A2,2 0 0,0 4,6A2,2 0 0,0 6,8H8V6M18,8A2,2 0 0,0 20,6A2,2 0 0,0 18,4A2,2 0 0,0 16,6V8H18Z" /></svg>
</svg>
<svg id="mdi:arrow-up-bold">
<svg xmlns="http://www.w3.org/2000/svg" id="mdi-arrow-up-bold" viewBox="0 0 24 24"><path d="M15,20H9V12H4.16L12,4.16L19.84,12H15V20Z" /></svg>
</svg>
<svg id="mdi:keyboard-esc">
<svg xmlns="http://www.w3.org/2000/svg" id="mdi-keyboard-esc" viewBox="0 0 24 24"><path d="M1 7H7V9H3V11H7V13H3V15H7V17H1V7M11 7H15V9H11V11H13C14.11 11 15 11.9 15 13V15C15 16.11 14.11 17 13 17H9V15H13V13H11C9.9 13 9 12.11 9 11V9C9 7.9 9.9 7 11 7M19 7H21C22.11 7 23 7.9 23 9V10H21V9H19V15H21V14H23V15C23 16.11 22.11 17 21 17H19C17.9 17 17 16.11 17 15V9C17 7.9 17.9 7 19 7Z" /></svg>
</svg>
<svg id="mdi:arrow-down-bold">
<svg xmlns="http://www.w3.org/2000/svg" id="mdi-arrow-down-bold" viewBox="0 0 24 24"><path d="M9,4H15V12H19.84L12,19.84L4.16,12H9V4Z" /></svg>
</svg>
<svg id="mdi:arrow-right-bold">
<svg xmlns="http://www.w3.org/2000/svg" id="mdi-arrow-right-bold" viewBox="0 0 24 24"><path d="M4,15V9H12V4.16L19.84,12L12,19.84V15H4Z" /></svg>
</svg>
<svg id="mdi:apple-keyboard-option">
<svg xmlns="http://www.w3.org/2000/svg" id="mdi-apple-keyboard-option" viewBox="0 0 24 24"><path d="M3,4H9.11L16.15,18H21V20H14.88L7.84,6H3V4M14,4H21V6H14V4Z" /></svg>
</svg>
</defs>/* end glyphs */
<style>/* inherit to force styles through use tags*/
svg path {
    fill: inherit;
}
/* font and background color specifications */
svg.keymap {
    font-family: SFMono-Regular,Consolas,Liberation Mono,Menlo,monospace;
    font-size: 14px;
    font-kerning: normal;
    text-rendering: optimizeLegibility;
    fill: #24292e;
}

/* default key styling */
rect.key {
    fill: #f6f8fa;
    stroke: #c9cccf;
    stroke-width: 1;
}

/* color accent for combo boxes */
rect.combo {
    fill: #cdf;
}

/* color accent for held keys */
rect.held, rect.combo.held {
    fill: #fdd;
}

/* color accent for ghost (optional) keys */
rect.ghost, rect.combo.ghost {
    fill: #ddd;
}

text {
    text-anchor: middle;
    dominant-baseline: middle;
}

/* styling for layer labels */
text.label {
    font-weight: bold;
    text-anchor: start;
    stroke: white;
    stroke-width: 2;
    paint-order: stroke;
}

/* styling for combo tap, and key hold/shifted label text */
text.combo, text.hold, text.shifted {
    font-size: 11px;
}

text.hold {
    text-anchor: middle;
    dominant-baseline: auto;
}

text.shifted {
    text-anchor: middle;
    dominant-baseline: hanging;
}

/* styling for hold/shifted label text in combo box */
text.combo.hold, text.combo.shifted {
    font-size: 8px;
}

/* lighter symbol for transparent keys */
text.trans {
    fill: #7b7e81;
}

/* styling for combo dendrons */
path.combo {
    stroke-width: 1;
    stroke: gray;
    fill: none;
}

/* Start Tabler Icons Cleanup */
/* cannot use height/width with glyphs */
.icon-tabler > path {
    fill: inherit;
    stroke: inherit;
}
/* hide tabler's default box */
.icon-tabler > path[stroke="none"][fill="none"] {
    visibility: collapse;
}
/* End Tabler Icons Cleanup */
</style>
<g class="layer-3">
<text x="30.0" y="28.0" class="label">3:</text>
<rect rx="6.0" ry="6.0" x="32.0" y="58.0" width="52.0" height="52.0" class="key"/>
<use href="#mdi:keyboard-esc" xlink:href="#mdi:keyboard-esc" x="51.0" y="77.0" height="14" width="14.0" class="tap glyph mdi:keyboard-esc"/>
<rect rx="6.0" ry="6.0" x="88.0" y="58.0" width="52.0" height="52.0" class="key"/>
<text x="114.0" y="84.0" class="tap">
<tspan x="114.0" dy="-0.6em">BACK</tspan><tspan x="114.0" dy="1.2em">PARA</tspan></text>
<rect rx="6.0" ry="6.0" x="144.0" y="58.0" width="52.0" height="52.0" class="key"/>
<text x="170.0" y="84.0" class="tap">
<tspan x="170.0" dy="-0.6em">FWD</tspan><tspan x="170.0" dy="1.2em">PARA</tspan></text>
<rect rx="6.0" ry="6.0" x="200.0" y="58.0" width="52.0" height="52.0" class="key"/>
<text x="226.0" y="84.0" class="tap">
<tspan x="226.0" dy="-0.6em">BACK</tspan><tspan x="226.0" dy="1.2em">FOO</tspan></text>
<rect rx="6.0" ry="6.0" x="256.0" y="58.0" width="52.0" height="52.0" class="key"/>
<text x="282.0" y="84.0" class="tap">
<tspan x="282.0" dy="-0.6em">FWD</tspan><tspan x="282.0" dy="1.2em">FOO</tspan></text>
<rect rx="6.0" ry="6.0" x="312.0" y="58.0" width="52.0" height="52.0" class="key"/>
<rect rx="6.0" ry="6.0" x="368.0" y="58.0" width="52.0" height="52.0" class="key"/>
<rect rx="6.0" ry="6.0" x="424.0" y="58.0" width="52.0" height="52.0" class="key"/>
<text x="450.0" y="84.0" class="tap">PGUP</text>
<rect rx="6.0" ry="6.0" x="480.0" y="58.0" width="52.0" height="52.0" class="key"/>
<use href="#mdi:arrow-up-bold" xlink:href="#mdi:arrow-up-bold" x="499.0" y="77.0" height="14" width="14.0" class="tap glyph mdi:arrow-up-bold"/>
<rect rx="6.0" ry="6.0" x="536.0" y="58.0" width="52.0" height="52.0" class="key"/>
<text x="562.0" y="84.0" class="tap">PGDN</text>
<rect rx="6.0" ry="6.0" x="592.0" y="58.0" width="52.0" height="52.0" class="key"/>
<rect rx="6.0" ry="6.0" x="648.0" y="58.0" width="52.0" height="52.0" class="key"/>
<text x="674.0" y="84.0" class="tap">UNDO</text>
<rect rx="6.0" ry="6.0" x="32.0" y="114.0" width="52.0" height="52.0" class="key"/>
<rect rx="6.0" ry="6.0" x="88.0" y="114.0" width="52.0" height="52.0" class="key"/>
<text x="114.0" y="140.0" class="tap">
<tspan x="114.0" dy="-0.6em">BACK</tspan><tspan x="114.0" dy="1.2em">FOO</tspan></text>
<rect rx="6.0" ry="6.0" x="144.0" y="114.0" width="52.0" height="52.0" class="key"/>
<text x="170.0" y="140.0" class="tap">
<tspan x="170.0" dy="-0.6em">FWD</tspan><tspan x="170.0" dy="1.2em">FOO</tspan></text>
<rect rx="6.0" ry="6.0" x="200.0" y="114.0" width="52.0" height="52.0" class="key"/>
<text x="226.0" y="140.0" class="tap">
<tspan x="226.0" dy="-0.6em">BACK</tspan><tspan x="226.0" dy="1.2em">FOO</tspan></text>
<rect rx="6.0" ry="6.0" x="256.0" y="114.0" width="52.0" height="52.0" class="key"/>
<text x="282.0" y="140.0" class="tap">
<tspan x="282.0" dy="-0.6em">FWD</tspan><tspan x="282.0" dy="1.2em">FOO</tspan></text>
<rect rx="6.0" ry="6.0" x="312.0" y="114.0" width="52.0" height="52.0" class="key"/>
<text x="338.0" y="140.0" class="tap">
<tspan x="338.0" dy="-0.6em">BEGIN</tspan><tspan x="338.0" dy="1.2em">LINE</tspan></text>
<rect rx="6.0" ry="6.0" x="368.0" y="114.0" width="52.0" height="52.0" class="key"/>
<rect rx="6.0" ry="6.0" x="424.0" y="114.0" width="52.0" height="52.0" class="key"/>
<use href="#mdi:arrow-left-bold" xlink:href="#mdi:arrow-left-bold" x="443.0" y="133.0" height="14" width="14.0" class="tap glyph mdi:arrow-left-bold"/>
<rect rx="6.0" ry="6.0" x="480.0" y="114.0" width="52.0" height="52.0" class="key"/>
<use href="#mdi:arrow-down-bold" xlink:href="#mdi:arrow-down-bold" x="499.0" y="133.0" height="14" width="14.0" class="tap glyph mdi:arrow-down-bold"/>
<rect rx="6.0" ry="6.0" x="536.0" y="114.0" width="52.0" height="52.0" class="key"/>
<use href="#mdi:arrow-right-bold" xlink:href="#mdi:arrow-right-bold" x="555.0" y="133.0" height="14" width="14.0" class="tap glyph mdi:arrow-right-bold"/>
<rect rx="6.0" ry="6.0" x="592.0" y="114.0" width="52.0" height="52.0" class="key"/>
<rect rx="6.0" ry="6.0" x="648.0" y="114.0" width="52.0" height="52.0" class="key"/>
<rect rx="6.0" ry="6.0" x="32.0" y="170.0" width="52.0" height="52.0" class="key"/>
<rect rx="6.0" ry="6.0" x="88.0" y="170.0" width="52.0" height="52.0" class="key"/>
<rect rx="6.0" ry="6.0" x="144.0" y="170.0" width="52.0" height="52.0" class="key"/>
<rect rx="6.0" ry="6.0" x="200.0" y="170.0" width="52.0" height="52.0" class="key"/>
<rect rx="6.0" ry="6.0" x="256.0" y="170.0" width="52.0" height="52.0" class="key"/>
<rect rx="6.0" ry="6.0" x="312.0" y="170.0" width="52.0" height="52.0" class="key"/>
<rect rx="6.0" ry="6.0" x="368.0" y="170.0" width="52.0" height="52.0" class="key"/>
<rect rx="6.0" ry="6.0" x="424.0" y="170.0" width="52.0" height="52.0" class="key"/>
<text x="450.0" y="196.0" class="tap">HOME</text>
<rect rx="6.0" ry="6.0" x="480.0" y="170.0" width="52.0" height="52.0" class="key"/>
<rect rx="6.0" ry="6.0" x="536.0" y="170.0" width="52.0" height="52.0" class="key"/>
<text x="562.0" y="196.0" class="tap">END</text>
<rect rx="6.0" ry="6.0" x="592.0" y="170.0" width="52.0" height="52.0" class="key"/>
<rect rx="6.0" ry="6.0" x="648.0" y="170.0" width="52.0" height="52.0" class="key"/>
<rect rx="6.0" ry="6.0" x="256.0" y="226.0" width="52.0" height="52.0" class="key"/>
<rect rx="6.0" ry="6.0" x="312.0" y="226.0" width="52.0" height="52.0" class="key"/>
<rect rx="6.0" ry="6.0" x="368.0" y="226.0" width="52.0" height="52.0" class="key"/>
<rect rx="6.0" ry="6.0" x="424.0" y="226.0" width="52.0" height="52.0" class="key"/>
<rect rx="6.0" ry="6.0" x="144.0" y="282.0" width="52.0" height="52.0" class="key"/>
<use href="#mdi:apple-keyboard-option" xlink:href="#mdi:apple-keyboard-option" x="163.0" y="301.0" height="14" width="14.0" class="tap glyph mdi:apple-keyboard-option"/>
<rect rx="6.0" ry="6.0" x="200.0" y="282.0" width="52.0" height="52.0" class="key"/>
<use href="#mdi:apple-keyboard-command" xlink:href="#mdi:apple-keyboard-command" x="219.0" y="301.0" height="14" width="14.0" class="tap glyph mdi:apple-keyboard-command"/>
<rect rx="6.0" ry="6.0" x="256.0" y="282.0" width="52.0" height="52.0" class="key"/>
<text x="282.0" y="308.0" class="tap">1_layer</text>
<rect rx="6.0" ry="6.0" x="312.0" y="282.0" width="52.0" height="52.0" class="held key"/>
<rect rx="6.0" ry="6.0" x="368.0" y="282.0" width="52.0" height="52.0" class="key"/>
<rect rx="6.0" ry="6.0" x="424.0" y="282.0" width="52.0" height="52.0" class="key"/>
<rect rx="6.0" ry="6.0" x="480.0" y="282.0" width="52.0" height="52.0" class="key"/>
<rect rx="6.0" ry="6.0" x="536.0" y="282.0" width="52.0" height="52.0" class="key"/>
</g>
</svg>
